<svg version="1.1" id="Layer_1" xmlns="http://www.w3.org/2000/svg" xmlns:xlink="http://www.w3.org/1999/xlink" x="0px" y="0px"
	 width="100%" viewBox="0 0 589 576" enable-background="new 0 0 589 576" xml:space="preserve">
<path fill="#000000" opacity="1.000000" stroke="none" 
	d="
M590.000000,229.000000 
	C590.000000,344.000000 589.980347,458.500031 590.095276,572.999878 
	C590.098694,576.423889 589.423584,577.096313 585.999939,577.094421 
	C392.333344,576.988281 198.666672,576.988281 5.000052,577.094421 
	C1.576430,577.096313 0.903570,576.423584 0.905494,572.999939 
	C1.011928,383.666656 1.011928,194.333328 0.905495,5.000053 
	C0.903570,1.576421 1.576430,0.903644 5.000052,0.905520 
	C198.666672,1.011671 392.333344,1.011671 585.999939,0.905520 
	C589.423584,0.903644 590.102051,1.575682 590.096252,5.000163 
	C589.969910,79.499947 590.000000,154.000000 590.000000,229.000000 
z"/>
<path fill="#7A43A7" opacity="1.000000" stroke="none" 
	d="
M340.806152,76.741562 
	C341.025360,76.982224 341.222839,77.309235 341.259338,77.496727 
	C341.388184,77.916847 341.480591,78.149483 341.541199,78.757004 
	C338.819000,81.768379 337.659271,79.927498 336.388184,77.551567 
	C332.884094,71.001717 330.084778,64.116051 324.971130,58.410095 
	C317.284943,49.833549 307.543335,45.331905 296.539673,44.836029 
	C286.351044,44.376881 277.652740,49.498581 270.599854,56.749046 
	C265.143005,62.358772 261.027527,69.022278 257.292786,76.302429 
	C252.017746,86.992195 249.133392,98.439941 241.787949,107.749352 
	C239.121628,111.128571 237.214966,115.051582 236.038391,119.315269 
	C233.655746,127.949501 227.532578,134.738174 224.149445,142.899979 
	C218.529160,156.458893 211.272614,169.189102 204.261459,182.045334 
	C202.154800,185.908295 200.580963,189.891190 202.705826,194.409027 
	C203.524048,196.148727 202.545349,197.343918 200.826035,198.286514 
	C198.491379,199.566452 196.420181,201.309998 193.880280,202.972351 
	C189.201691,209.704102 186.845871,217.095474 184.019836,224.652695 
	C178.375214,232.907486 174.276718,241.596085 170.501831,250.407898 
	C167.942108,256.383118 165.056717,262.123352 161.242767,267.810272 
	C158.960648,271.400726 157.278809,274.850250 156.739349,279.149933 
	C154.150452,281.077332 154.852966,283.949493 154.016693,286.160736 
	C151.772614,292.094482 147.004623,296.353058 144.210709,301.916351 
	C142.510895,305.301086 140.618301,308.572021 139.197159,312.477173 
	C136.538651,320.195099 131.660202,326.331909 128.145950,333.571136 
	C126.091545,338.450134 123.563797,342.693359 123.134254,347.890259 
	C122.786102,352.102478 118.510689,354.173553 116.399277,357.538788 
	C111.137070,365.925964 107.093407,374.779449 104.348427,384.516937 
	C110.840630,381.036316 115.617027,370.752869 113.680779,364.417389 
	C113.021774,362.261108 113.522095,360.002747 115.020103,359.420685 
	C123.923187,355.961609 125.781471,347.363617 129.646729,340.216888 
	C130.120880,339.340240 130.181778,338.292633 130.997009,337.181458 
	C133.894073,334.225708 133.572678,330.189758 135.761612,327.210480 
	C138.398605,323.621338 140.513351,319.659424 142.964203,315.507019 
	C145.566162,309.804779 148.402512,304.790771 147.303894,298.236786 
	C146.751495,294.941284 150.417603,292.280426 153.252655,290.172089 
	C156.357574,287.863037 159.049194,285.187469 160.915619,281.439209 
	C160.402405,279.138275 162.430649,278.008789 162.525360,275.909821 
	C162.622345,274.948273 162.732162,274.311188 162.845642,273.339172 
	C162.858871,272.310089 162.845871,271.612976 163.283417,270.636963 
	C164.404953,269.028900 163.819916,267.659973 163.760361,266.273834 
	C163.680634,264.417816 164.214279,262.750793 166.144989,261.787384 
	C171.390778,259.169800 173.886566,254.210556 176.254578,249.294312 
	C180.038376,241.438843 183.655075,233.504898 188.219635,225.641373 
	C188.452576,225.085571 188.544373,224.864227 188.830643,224.344208 
	C190.372498,223.233215 192.093521,222.733398 191.905869,220.270203 
	C192.919968,215.693329 195.895981,212.334015 197.175232,207.833481 
	C196.765533,202.316696 200.062958,199.195877 202.998581,195.515671 
	C208.734070,188.325455 211.807007,179.552536 215.762787,171.325287 
	C224.673294,152.793137 233.998093,134.464417 243.085953,116.020638 
	C248.937241,104.145470 254.815155,92.265762 261.249817,80.293938 
	C264.577423,77.145546 264.766907,72.835129 266.814758,69.408745 
	C273.143219,58.820240 281.495514,52.155270 294.592285,51.324776 
	C310.339752,50.326202 320.540955,58.159096 327.046417,70.835312 
	C330.513489,77.591133 332.547577,85.309349 330.342041,93.923347 
	C326.715698,108.086388 318.667389,119.984642 312.780701,132.970734 
	C302.753784,155.090088 290.723480,176.203583 280.416351,198.202560 
	C270.060120,220.306503 258.456421,241.835068 247.395416,263.613739 
	C245.640991,267.068085 242.920456,269.877502 241.172913,273.347687 
	C240.315308,275.050659 239.653885,276.648376 240.021576,278.953339 
	C234.656281,290.914062 228.156616,301.908020 222.881500,313.913147 
	C220.962326,316.600159 220.218369,319.477570 218.725159,322.384613 
	C213.140457,331.351379 209.528854,340.885162 205.191132,350.056152 
	C202.488617,355.769928 199.292358,361.197205 196.155762,366.646362 
	C194.201935,370.040741 192.102524,373.326019 190.606842,377.352692 
	C187.725967,381.261261 186.279068,385.275787 185.140106,389.702179 
	C183.616745,395.622528 180.280136,400.958038 176.856400,406.033966 
	C174.459702,409.587311 173.068359,413.477692 172.052383,417.467438 
	C171.077774,421.294678 169.348541,424.672760 167.033890,427.672577 
	C162.204254,433.931732 158.950958,440.993011 155.654327,448.087006 
	C149.981720,460.293884 143.059677,471.858643 136.945572,483.842682 
	C135.962662,485.769257 135.015930,487.675873 134.198456,489.682617 
	C131.219803,496.994659 127.834389,503.950317 120.062469,507.612671 
	C117.589279,508.778137 115.324730,510.571960 112.478844,512.828796 
	C121.544983,512.325439 126.781349,508.124542 130.719223,500.988739 
	C134.863342,493.479218 140.456497,486.835938 144.068344,478.915863 
	C150.809296,464.134125 159.663177,450.341400 165.094696,434.952301 
	C167.380264,428.476654 170.649582,422.722931 174.987869,417.489197 
	C176.941498,415.132324 176.634048,412.095978 177.090134,409.382996 
	C178.555634,400.666168 183.731796,394.468201 190.224838,389.148102 
	C191.280930,388.282837 191.581360,387.464661 191.839005,385.997650 
	C193.185669,382.110168 193.749954,378.274048 196.480408,374.943848 
	C197.287064,374.050018 198.440720,373.605743 198.434433,372.934387 
	C198.370163,366.061127 204.333847,362.167877 206.432480,356.538910 
	C209.295059,348.860809 214.097549,342.281769 217.281204,334.845032 
	C217.735764,333.783234 218.169876,332.695953 219.305054,331.615356 
	C221.391373,327.289856 224.231079,323.623108 224.414261,318.526825 
	C228.578598,314.144623 231.041992,309.228760 232.511658,303.802826 
	C232.956436,302.160675 233.568405,300.717163 234.678741,299.426849 
	C237.630264,295.996857 239.720764,292.085815 241.278839,287.493164 
	C244.595200,282.765289 248.344345,278.639374 248.973511,272.941162 
	C249.243118,270.499451 251.280960,269.101685 252.148056,267.038483 
	C257.810455,253.565018 266.431305,241.543854 271.981415,228.111725 
	C277.007904,215.946838 284.366608,205.052902 289.385040,192.950211 
	C290.371552,190.571152 291.711639,187.990768 295.507843,188.810974 
	C296.217316,189.444321 296.375336,189.929535 296.010498,190.745834 
	C286.342499,209.777603 277.053192,228.588531 267.598846,247.316147 
	C225.493774,330.719971 183.330017,414.094116 141.215057,497.492920 
	C131.774460,516.187805 112.791740,526.736328 93.834610,523.677551 
	C72.908325,520.301147 57.460003,504.850739 54.384052,484.054382 
	C53.074131,475.198059 54.880821,466.733490 58.818050,458.837952 
	C73.233315,429.930267 87.801697,401.098846 102.332588,372.248871 
	C153.197037,271.261505 204.080597,170.283737 254.918259,69.282875 
	C258.779480,61.611668 263.289276,54.502724 270.135864,49.123375 
	C290.513885,33.112442 321.101410,39.022530 334.295288,61.637867 
	C336.464325,65.355728 337.969330,69.461014 339.858307,73.753082 
	C340.809235,74.733307 340.361786,75.709084 340.806152,76.741562 
z"/>
<path fill="#7743A2" opacity="1.000000" stroke="none" 
	d="
M352.796753,100.651428 
	C362.951233,119.928032 372.667755,139.083282 382.326843,158.267441 
	C430.566528,254.077271 478.792877,349.893799 527.016357,445.711761 
	C529.637024,450.918915 532.494385,456.033997 534.720276,461.407898 
	C543.490417,482.581360 534.591064,507.846252 514.854492,518.360046 
	C494.179688,529.373657 468.438599,523.204895 455.447388,503.921814 
	C449.382080,494.919006 445.103119,484.911713 440.239685,475.246979 
	C399.132568,393.557373 358.074585,311.843079 317.028473,230.122787 
	C312.854401,221.812424 308.855530,213.414047 304.745789,204.683594 
	C304.286041,203.110764 304.560425,202.103271 305.902222,201.106430 
	C308.402985,200.577225 309.113129,202.097351 309.905060,203.623306 
	C326.072906,234.776550 341.318970,266.394043 357.294128,297.646545 
	C366.594360,315.840820 375.611542,334.193939 384.906281,352.390625 
	C391.625000,365.544220 397.658539,379.035614 404.867493,391.976837 
	C408.772949,398.987732 412.959137,406.061981 415.697906,413.748627 
	C418.304932,421.065704 424.073364,426.510681 427.388153,433.423370 
	C430.473602,439.857758 434.062042,445.998871 436.229523,452.923889 
	C437.863953,458.145752 440.448639,463.247223 445.619263,467.451111 
	C445.065247,461.782166 442.231873,457.865601 440.141754,453.923035 
	C429.152161,433.193207 419.388550,411.865143 408.831635,390.929260 
	C391.095642,355.756348 373.508301,320.508636 356.000031,285.223145 
	C345.957947,264.984650 335.288605,245.065872 325.387299,224.771103 
	C320.661682,215.085022 315.342621,205.597427 311.908752,195.324921 
	C311.195801,193.192093 309.396027,192.871811 308.191864,191.122849 
	C307.965881,188.415375 308.440674,186.243896 310.287048,184.183136 
	C312.835052,182.951950 314.074554,184.119629 315.106781,185.864960 
	C316.295685,187.875198 317.322906,189.968536 318.361877,192.055786 
	C330.385284,216.210312 342.468536,240.335449 354.617554,264.426422 
	C367.659973,290.289001 380.786316,316.110504 393.790039,341.992157 
	C415.325226,384.854248 436.721527,427.786560 458.251709,470.651215 
	C461.980316,478.074585 465.174408,485.804016 469.907959,492.709717 
	C478.297729,504.949432 493.052551,508.803802 505.987396,502.102417 
	C517.667175,496.051239 522.463989,482.056030 517.515869,468.418152 
	C515.576965,463.074158 512.731384,458.158417 510.199615,453.095764 
	C490.827057,414.357269 471.731262,375.477478 452.019470,336.912262 
	C428.972168,291.821289 406.676422,246.354675 383.690491,201.236130 
	C371.369751,177.052032 359.195038,152.795685 346.960876,128.568726 
	C345.537689,125.750496 343.829803,122.921707 346.085999,119.355072 
	C346.566772,118.941223 346.795715,118.821655 347.409210,118.662476 
	C350.503021,118.635612 351.257019,120.977592 352.433594,122.679100 
	C357.471924,129.965179 361.132233,138.006927 365.077179,145.900360 
	C371.471191,158.694168 377.899078,171.471115 384.297760,184.262756 
	C392.860413,201.380295 401.306183,218.560699 410.087433,235.564011 
	C419.393280,253.583176 428.038025,271.926697 437.358246,289.942566 
	C444.925446,304.569794 451.959045,319.501587 459.537231,334.130096 
	C468.558960,351.545197 477.402191,369.061676 486.153809,386.599457 
	C493.193146,400.705902 500.891510,414.502655 507.144928,429.038666 
	C510.806610,437.550140 515.915527,445.452026 520.062256,453.805206 
	C524.100098,461.939240 527.206726,470.258118 527.938904,479.362732 
	C527.965576,479.694580 528.061707,480.027771 528.040710,480.355896 
	C527.410767,490.194672 522.780884,498.288483 516.592163,506.018402 
	C509.491547,509.642273 502.878693,513.625488 494.741974,512.585083 
	C493.439911,512.418579 492.026642,512.649780 490.828552,513.205627 
	C487.269318,514.856812 484.122559,513.887817 480.866943,512.205750 
	C478.530518,510.998596 476.270477,509.002136 472.937561,509.863800 
	C480.890289,517.943298 501.948822,522.147156 516.326172,510.057007 
	C525.612549,502.465881 530.809021,493.374054 531.763489,481.408569 
	C532.548218,471.571716 529.499146,463.365417 525.393677,454.785400 
	C515.837646,434.814240 505.417084,415.281494 495.670532,395.408783 
	C489.608765,383.049103 483.698456,370.569489 477.117310,358.443726 
	C472.360535,349.679352 468.608124,340.393402 463.987213,331.563416 
	C459.824341,323.608582 454.863831,316.060486 451.623505,307.638062 
	C448.737091,300.135468 443.812103,293.713348 440.514008,286.469879 
	C433.075775,270.133820 425.142181,254.024414 416.702118,238.216583 
	C406.820923,219.709503 397.681824,200.831818 388.281799,182.101196 
	C381.583008,168.753189 373.965027,155.831360 368.316040,141.946213 
	C366.182495,136.701920 363.745300,131.466949 360.472198,126.918068 
	C356.346985,121.184959 355.375183,113.823158 350.071045,108.372986 
	C348.316895,104.782158 348.541534,102.055992 352.796753,100.651428 
z"/>
<path fill="#552A81" opacity="1.000000" stroke="none" 
	d="
M353.184326,100.406281 
	C351.749298,102.611160 351.024445,104.686874 351.589050,107.392731 
	C354.024963,112.532433 351.960602,116.276054 348.284180,119.792252 
	C347.587433,119.928085 347.309784,119.992210 346.611816,120.133705 
	C343.551392,121.728165 342.847107,119.497086 341.721161,117.954567 
	C339.327881,114.675850 339.301300,110.202034 336.141876,106.847534 
	C337.074890,98.406136 338.968933,90.471550 338.824402,82.287506 
	C338.808777,81.400925 339.207703,80.348228 340.323303,79.352287 
	C340.663727,78.756744 340.780975,78.536957 341.097046,78.000687 
	C346.433990,84.506363 349.123962,92.621269 353.184326,100.406281 
z"/>
<path fill="#52267F" opacity="1.000000" stroke="none" 
	d="
M312.097534,184.843842 
	C311.216736,186.832199 310.711426,188.587158 310.155548,190.686798 
	C312.281921,195.162750 311.439667,198.820740 307.203674,201.699066 
	C306.216248,202.416779 305.679321,203.110855 304.929291,204.057816 
	C302.201050,201.785690 301.379089,198.325729 299.778442,195.298401 
	C298.936951,193.706940 298.470917,191.886383 296.124634,191.089462 
	C295.655243,190.775986 295.642639,190.544754 295.664429,190.137177 
	C294.741394,188.414597 294.882111,186.872147 295.653839,185.315033 
	C297.538086,181.513153 299.219727,177.610153 301.357758,173.934982 
	C302.294373,172.324951 303.283844,170.824295 305.969269,171.428833 
	C310.361755,173.813492 313.373383,180.325806 312.097534,184.843842 
z"/>
<path fill="#552A81" opacity="1.000000" stroke="none" 
	d="
M341.041077,76.666763 
	C340.648621,76.240952 340.271912,75.499664 339.915283,74.438644 
	C340.309235,74.863037 340.683044,75.607170 341.041077,76.666763 
z"/>
<path fill="#010002" opacity="1.000000" stroke="none" 
	d="
M193.283020,360.234009 
	C172.786209,400.685699 152.479828,440.821289 132.151932,480.946014 
	C130.119568,484.957642 128.060593,488.962372 125.835052,492.868347 
	C117.940323,506.724121 101.801323,512.027100 87.443047,505.563171 
	C72.995979,499.059235 66.390015,483.722992 71.638458,468.466217 
	C74.959900,458.811157 80.464226,450.180542 85.030258,441.118347 
	C129.706421,352.449402 174.510086,263.844757 219.240189,175.202957 
	C236.422684,141.152359 253.506058,107.051727 270.641205,72.977211 
	C276.897949,60.535179 288.172852,54.373264 301.273376,56.209557 
	C313.096893,57.866852 323.034790,68.154358 325.296234,81.179337 
	C326.646515,88.956482 325.794647,96.537888 322.247498,103.594383 
	C289.552063,168.637360 256.771515,233.637604 224.054199,298.669586 
	C213.798645,319.054535 203.659714,339.498108 193.283020,360.234009 
z"/>
<path fill="#7F42B2" opacity="1.000000" stroke="none" 
	d="
M305.969757,172.807129 
	C301.065887,177.647568 300.093048,184.398682 295.875854,189.675995 
	C293.680176,190.731400 292.403168,192.190811 291.585693,194.101654 
	C285.985901,207.191010 278.659363,219.421097 272.840363,232.437698 
	C266.775543,246.004120 258.978363,258.787720 252.211044,272.052582 
	C249.504425,277.357880 246.919281,282.701508 243.293610,287.827240 
	C239.738907,288.979431 239.886230,286.661041 239.943283,284.667114 
	C240.002609,282.595123 241.516510,281.052612 242.521866,278.661194 
	C240.633835,279.108185 239.173447,281.492798 237.207687,279.273254 
	C240.505554,269.445038 246.036530,260.890289 250.481964,251.797241 
	C255.519440,241.493164 260.251343,231.006912 265.882812,221.032791 
	C277.893250,199.760742 286.464142,176.783203 298.941467,155.729004 
	C304.347961,146.606064 308.131073,136.529556 312.807281,126.962296 
	C315.872803,120.690399 319.091675,114.485336 322.471832,108.377617 
	C325.925110,102.137779 328.345062,95.137695 328.493774,88.465912 
	C328.820618,73.805199 318.088806,54.306679 298.935242,53.893471 
	C283.961823,53.570438 273.962006,60.081089 267.767426,73.357857 
	C266.589264,75.882996 265.855713,78.729141 263.305115,80.836533 
	C258.901306,82.222969 257.746887,78.468582 255.250763,76.260719 
	C260.075989,63.882915 267.613495,53.623718 279.015900,46.911018 
	C288.522003,41.314697 298.571045,40.890255 309.222198,44.734509 
	C323.945557,50.048500 331.881592,61.335304 338.028564,74.624786 
	C338.650513,75.969414 339.399506,77.255264 340.317993,78.772461 
	C341.830353,88.174614 341.158783,97.182503 337.907959,106.317871 
	C338.848511,108.978745 338.576019,111.239830 337.534088,113.374725 
	C328.422211,132.044891 319.076813,150.598831 309.703766,169.138870 
	C308.933350,170.662735 307.925781,171.938385 305.969757,172.807129 
z"/>
<path fill="#8043B4" opacity="1.000000" stroke="none" 
	d="
M254.878036,76.324783 
	C258.217682,76.315872 261.105011,77.216545 262.827393,80.732819 
	C262.078308,86.357346 259.267456,91.067558 256.593048,95.464920 
	C251.652588,103.588165 248.757721,112.620789 243.960602,120.784637 
	C235.902374,134.498276 230.402908,149.529663 222.381668,163.320496 
	C217.559967,171.610413 213.965164,180.619537 209.914322,189.349670 
	C208.071747,193.320679 205.838104,196.985428 202.314377,199.637527 
	C199.645981,201.645889 200.436386,204.813354 199.180328,207.671356 
	C194.576065,209.475861 192.978699,208.281494 192.041565,202.413879 
	C194.075928,199.965744 195.479919,197.099579 198.762878,196.544312 
	C199.756439,196.376266 200.325027,195.677734 199.824432,194.771286 
	C196.554169,188.849274 200.516693,184.289108 202.687958,179.431808 
	C206.423294,171.075500 212.218933,163.827942 215.631577,155.271530 
	C219.328217,146.003067 223.595718,136.996384 229.113068,128.635605 
	C233.270355,122.335823 233.535599,114.197075 238.372864,108.299362 
	C246.099777,98.878510 248.671768,86.870369 254.878036,76.324783 
z"/>
<path fill="#8142B2" opacity="1.000000" stroke="none" 
	d="
M194.756073,386.759918 
	C191.219421,390.836731 189.163956,396.370911 183.504883,398.381226 
	C182.283554,398.815094 181.130051,400.370392 181.453827,401.584839 
	C182.857147,406.848602 179.038269,411.050140 178.843704,415.990723 
	C178.670685,420.384369 174.769608,423.180115 172.499496,426.256531 
	C169.810211,429.901001 168.221130,433.829712 167.029922,437.714233 
	C164.650375,445.473846 160.204773,452.089661 156.730453,459.228119 
	C151.939713,469.071259 147.109100,478.903229 141.961426,488.561859 
	C137.784332,496.399323 133.066528,503.936279 126.980324,510.512451 
	C125.092026,512.552734 122.934143,513.824829 120.111259,514.177185 
	C117.295204,514.528687 114.581085,515.382324 112.208656,517.071045 
	C110.865463,518.027161 109.373260,519.459229 107.875481,517.656738 
	C106.511574,516.015381 107.156258,514.183472 108.433861,512.653687 
	C111.284882,509.239838 115.276886,507.226654 119.025475,505.274902 
	C125.147583,502.087280 128.393997,496.918427 130.890106,491.030457 
	C136.355774,478.137604 143.507446,466.142273 150.208328,453.898987 
	C152.193115,450.272614 153.168930,446.090057 155.185074,442.485687 
	C158.261108,436.986481 160.705643,431.132538 164.851044,426.193695 
	C167.038727,423.587250 168.545929,420.374115 169.455154,416.874695 
	C170.877319,411.401123 173.005936,406.310089 176.967239,401.870667 
	C181.116226,397.220856 181.899002,390.715973 184.203857,385.045471 
	C185.320374,382.298553 185.645981,379.165741 189.019165,377.237793 
	C191.161148,380.344086 190.336502,384.733887 194.756073,386.759918 
z"/>
<path fill="#8043B3" opacity="1.000000" stroke="none" 
	d="
M133.107666,337.531555 
	C129.784531,347.021515 127.028984,356.361206 117.391701,361.011688 
	C115.683609,361.835907 115.703896,363.055756 116.821785,364.180573 
	C119.433296,366.808258 118.044113,369.226929 116.862534,371.891418 
	C113.959656,378.437347 110.232483,384.383789 105.260719,389.573151 
	C103.847137,391.048615 102.389557,391.197876 100.798492,390.451996 
	C98.989563,389.603973 99.383476,388.037292 99.993561,386.583801 
	C105.362396,373.792664 109.958855,360.681946 119.203537,349.795227 
	C122.027863,346.469238 121.097610,340.879333 123.588554,336.841431 
	C124.262993,335.748108 124.278160,334.265839 125.699600,333.187164 
	C131.266190,329.817841 132.527344,330.527924 133.107666,337.531555 
z"/>
<path fill="#8142B2" opacity="1.000000" stroke="none" 
	d="
M221.006348,331.566895 
	C215.742630,343.455780 211.099579,355.234528 203.496994,365.456360 
	C201.270950,368.449341 201.880768,372.562805 199.231903,375.737946 
	C196.936554,376.398132 194.804642,376.588745 192.971191,377.792969 
	C191.725967,378.610840 190.551376,378.663696 189.242920,377.241058 
	C189.000168,377.000000 188.997482,376.997406 188.991486,376.990967 
	C190.607513,370.972656 193.652145,365.563538 196.730667,360.275818 
	C202.518494,350.334503 206.884262,339.738770 211.739944,329.368500 
	C212.962845,326.756775 214.309555,324.348450 216.777527,322.256775 
	C220.027435,320.400360 220.841553,322.359863 221.158279,324.736023 
	C221.440231,326.851166 221.102951,328.991913 221.006348,331.566895 
z"/>
<path fill="#8043B4" opacity="1.000000" stroke="none" 
	d="
M189.887268,224.657074 
	C185.602158,236.841187 180.219620,248.207428 173.612640,258.969116 
	C172.773041,260.336639 171.529053,261.692902 170.141541,262.439301 
	C166.936127,264.163605 165.600647,266.637207 166.013275,270.586182 
	C161.695053,274.168274 160.897964,270.247253 159.197708,267.360168 
	C166.417725,255.505310 170.451721,242.306824 177.309174,230.521133 
	C178.558960,228.373154 179.331329,225.946625 181.700653,224.179016 
	C184.630768,222.561157 187.228455,222.610931 189.887268,224.657074 
z"/>
<path fill="#8042B2" opacity="1.000000" stroke="none" 
	d="
M236.836563,279.318756 
	C239.346207,277.929657 240.633743,275.737976 242.316528,273.959747 
	C243.276642,272.945160 244.026443,271.071625 245.806854,272.098541 
	C247.371948,273.001282 246.671661,274.737915 246.441879,276.163696 
	C246.072998,278.452759 245.516068,280.644806 243.826370,282.424713 
	C242.509079,283.812408 241.903687,285.482025 242.871078,287.710083 
	C243.004440,290.571564 242.382706,293.028320 240.859161,295.026703 
	C235.345795,302.258362 233.449280,311.552063 227.202850,318.734711 
	C222.693146,319.841339 222.675064,315.162231 220.079773,313.329651 
	C222.953079,309.854706 223.683380,305.584839 225.511002,301.873322 
	C229.175629,294.431244 233.863022,287.501770 236.836563,279.318756 
z"/>
<path fill="#8043B3" opacity="1.000000" stroke="none" 
	d="
M137.070282,312.424957 
	C137.731812,306.691956 140.555511,302.307251 143.564056,298.138031 
	C147.938278,292.076202 151.894806,285.876251 153.786652,278.232117 
	C157.310226,277.218323 160.008286,278.664581 162.814987,280.720276 
	C161.421738,285.778381 159.210281,289.996094 154.451675,292.536316 
	C151.050613,294.351929 149.123306,296.794708 150.319458,301.399658 
	C151.720032,306.791656 147.764664,310.999969 145.235657,315.745789 
	C140.870224,318.310272 139.554489,317.782135 137.070282,312.424957 
z"/>
<path fill="#8043B4" opacity="1.000000" stroke="none" 
	d="
M190.009354,225.008926 
	C187.456421,225.580856 184.863068,226.569626 182.244247,224.200073 
	C183.996262,216.297684 186.665573,208.906158 191.767090,202.246536 
	C194.200836,203.821457 195.545517,206.624573 198.720825,207.858765 
	C199.162354,212.787750 195.703888,216.179169 194.141174,220.676361 
	C192.788574,222.152649 191.302689,223.031448 190.234848,224.781174 
	C190.014160,225.013992 190.002090,225.004318 190.009354,225.008926 
z"/>
<path fill="#7F42B2" opacity="1.000000" stroke="none" 
	d="
M136.800262,312.290253 
	C139.366852,313.408966 141.425369,315.431183 144.665054,315.956909 
	C141.203003,323.210754 137.387177,330.409790 133.296143,337.811157 
	C131.301514,335.877075 130.438538,332.663666 126.357857,333.001892 
	C128.620255,325.715118 133.729034,319.730042 136.800262,312.290253 
z"/>
<path fill="#8142B3" opacity="1.000000" stroke="none" 
	d="
M219.801453,313.298462 
	C224.187500,312.377838 226.899216,313.604706 226.869659,318.718079 
	C227.386536,324.165436 224.121140,327.745636 221.298462,331.824585 
	C217.401474,329.720581 220.434967,325.021515 217.281708,322.226501 
	C217.349579,319.036957 218.228287,316.238800 219.801453,313.298462 
z"/>
<path fill="#8043B4" opacity="1.000000" stroke="none" 
	d="
M163.239029,280.761780 
	C159.694977,281.749298 156.182877,283.180237 154.164093,278.286011 
	C154.861969,274.216492 156.365540,270.728577 158.801819,267.284912 
	C161.114380,268.259003 163.240631,269.521027 165.688812,270.892273 
	C166.014252,271.747467 166.017746,272.493378 166.020660,273.612305 
	C166.011139,274.433746 166.005524,274.882233 166.003937,275.667114 
	C165.628830,277.775543 164.735748,279.256409 163.239029,280.761780 
z"/>
<path fill="#8142B2" opacity="1.000000" stroke="none" 
	d="
M188.905212,377.349854 
	C190.434982,376.581299 191.628174,375.800354 192.548370,374.617615 
	C195.059647,371.389893 197.033646,372.231506 198.856430,375.721985 
	C197.265884,379.249542 194.944580,382.256805 195.019730,386.603638 
	C185.555084,386.951263 185.485840,386.847107 188.905212,377.349854 
z"/>
<path fill="#8043B4" opacity="1.000000" stroke="none" 
	d="
M190.326965,224.905273 
	C190.218765,222.960571 191.100449,221.479767 193.653931,221.059921 
	C193.497070,222.811584 192.466705,224.156616 190.326965,224.905273 
z"/>
<path fill="#8043B4" opacity="1.000000" stroke="none" 
	d="
M166.093765,275.810303 
	C165.949615,275.459991 165.894608,274.916504 165.929840,274.179138 
	C166.074356,274.529236 166.128632,275.073151 166.093765,275.810303 
z"/>
<path fill="#010002" opacity="1.000000" stroke="none" 
	d="
M305.917786,173.209625 
	C309.795502,161.589615 316.095947,151.219330 321.346558,140.345062 
	C326.676178,129.307175 332.200348,118.363243 337.765717,107.036430 
	C342.210907,110.053558 342.646881,115.719582 345.944763,120.021347 
	C349.709229,129.581909 354.946503,138.116547 359.412720,147.016098 
	C401.013977,229.911865 442.799866,312.714966 484.520264,395.550934 
	C495.456665,417.265137 506.372009,438.990021 517.252869,460.732117 
	C520.405334,467.031464 523.021912,473.501648 522.378662,480.792358 
	C521.205383,494.089752 512.748962,504.252045 500.282196,507.325104 
	C487.591217,510.453430 474.024567,505.449188 467.512848,493.835785 
	C459.050171,478.742798 451.445221,463.162262 443.668701,447.692230 
	C406.726135,374.201508 369.848358,300.678223 332.953522,227.163528 
	C326.009613,213.327438 319.092987,199.477646 311.942932,185.355713 
	C310.601868,180.854553 307.972687,177.347092 305.917786,173.209625 
z"/>
<path fill="#8143B1" opacity="1.000000" stroke="none" 
	d="
M348.037537,120.179413 
	C348.530853,115.873634 349.666382,112.024101 351.520691,108.011711 
	C353.867523,108.208366 354.913055,109.770187 355.896118,111.631653 
	C365.893036,130.560776 375.233124,149.832916 384.855103,168.942917 
	C393.662170,186.434433 402.165894,204.120102 411.179932,221.507355 
	C418.596069,235.812469 425.117279,250.575912 433.365875,264.481110 
	C437.476807,271.411133 439.285645,279.747070 443.614807,286.498749 
	C452.259613,299.981079 456.717834,315.539825 465.753357,328.820648 
	C469.616882,334.499390 471.544189,341.458527 474.755859,347.625122 
	C482.418701,362.338104 489.794739,377.211151 497.063232,392.101593 
	C509.095398,416.751007 523.140991,440.489777 533.030090,466.079468 
	C537.366333,477.300049 535.745483,489.560669 528.547424,500.197998 
	C525.685669,504.427002 523.632263,509.345367 518.287781,511.834930 
	C515.012207,510.428864 513.113220,508.313171 514.723999,504.314148 
	C525.208923,491.505554 528.222046,478.253082 521.200989,462.847443 
	C513.889404,446.804474 505.127899,431.536957 497.412567,415.722137 
	C487.941376,396.308167 478.424866,376.915009 468.747345,357.603333 
	C458.754456,337.662323 448.697021,317.750549 438.384949,297.973480 
	C429.029694,280.031464 420.339172,261.767303 411.355560,243.644882 
	C402.728577,226.241867 394.279114,208.739594 385.171906,191.588776 
	C373.734528,170.049667 363.985657,147.650665 351.770142,126.517876 
	C350.603058,124.498856 349.397675,122.501991 348.037537,120.179413 
z"/>
<path fill="#7F42B2" opacity="1.000000" stroke="none" 
	d="
M306.880127,202.117737 
	C307.797516,198.400345 308.841888,195.077988 309.995605,191.393539 
	C312.012573,191.560440 313.170074,192.849258 314.014404,194.601578 
	C321.013641,209.128113 327.666016,223.838867 335.172546,238.099533 
	C344.601105,256.011566 353.580078,274.144958 362.409332,292.342957 
	C372.060822,312.235687 382.975586,331.497314 391.839294,351.779846 
	C395.691925,360.595612 401.002777,368.666229 405.080078,377.402527 
	C412.587219,393.487854 420.560059,409.357697 428.458008,425.258148 
	C435.248077,438.928253 442.125214,452.556915 449.162659,466.100616 
	C450.372620,468.429260 451.284332,470.776825 449.290802,472.402710 
	C447.181427,474.123077 445.230469,471.773254 443.794739,470.404480 
	C438.883545,465.722351 435.384338,459.792908 433.537872,453.517395 
	C431.142212,445.375305 427.171387,438.122070 422.849243,431.120514 
	C418.477692,424.038910 414.766174,416.706329 410.888214,409.391541 
	C406.312042,400.759888 401.993805,391.973724 397.528412,383.293762 
	C388.418732,365.585907 379.951263,347.521912 370.893005,329.806641 
	C361.205627,310.860962 351.680084,291.820831 341.901337,272.916077 
	C336.169647,261.835266 331.077667,250.414047 325.099182,239.473129 
	C319.692993,229.579529 316.080688,218.748550 309.238525,209.587402 
	C307.841614,207.716995 307.717804,204.895737 306.880127,202.117737 
z"/>
<path fill="#7F42B2" opacity="1.000000" stroke="none" 
	d="
M514.660583,504.098328 
	C515.700745,506.529724 517.690979,508.556061 517.957153,511.653290 
	C510.827118,518.033997 502.613586,520.854309 493.208069,520.309143 
	C486.172211,519.901428 479.504578,518.207397 473.207733,515.095215 
	C472.044617,514.520386 471.053589,513.552856 470.069122,512.670593 
	C468.300568,511.085449 467.440338,509.067169 468.562836,506.861633 
	C469.681702,504.663208 471.796967,505.744293 473.498199,505.996857 
	C474.786438,506.188141 476.147614,506.572388 477.244965,507.247131 
	C482.178650,510.280670 487.013702,511.003143 493.122345,510.521149 
	C500.931946,509.904907 507.631653,507.564606 514.660583,504.098328 
z"/>
</svg>